<?xml version="1.0" standalone="no"?>
<!DOCTYPE svg PUBLIC "-//W3C//DTD SVG 20010904//EN"
 "http://www.w3.org/TR/2001/REC-SVG-20010904/DTD/svg10.dtd">
<svg version="1.0" xmlns="http://www.w3.org/2000/svg"
 width="105.000000pt" height="105.000000pt" viewBox="0 0 105.000000 105.000000"
 preserveAspectRatio="xMidYMid meet">
<metadata>
Created by potrace 1.11, written by Peter Selinger 2001-2013
</metadata>
<g transform="translate(0.000000,105.000000) scale(0.100000,-0.100000)"
fill="#000000" stroke="none">
<path d="M435 991 c-52 -25 -94 -65 -112 -109 -15 -37 -15 -202 0 -202 5 0 5
-9 2 -20 -7 -22 9 -50 29 -50 6 0 5 4 -3 9 -11 7 -12 13 -4 23 6 7 11 31 11
52 1 22 6 42 12 46 8 5 8 15 0 34 -5 15 -10 38 -10 52 l0 25 29 -22 c31 -23
96 -28 142 -11 26 10 33 12 50 12 5 0 7 5 3 12 -5 7 -3 8 7 2 8 -5 19 -9 24
-9 6 0 10 -6 10 -12 0 -19 19 -11 20 9 1 9 -1 15 -5 13 -3 -2 -12 0 -19 4 -9
6 -4 9 13 9 23 0 26 -4 26 -39 0 -21 4 -40 9 -43 11 -7 34 -134 26 -146 -4 -6
-2 -10 4 -10 12 0 26 44 18 57 -3 4 -2 40 2 78 10 95 -1 131 -57 184 -75 70
-151 88 -227 52z"/>
<path d="M605 819 c-4 -6 -5 -12 -2 -15 2 -3 7 2 10 11 7 17 1 20 -8 4z"/>
<path d="M578 747 c-20 -12 -37 -28 -37 -37 -3 -73 0 -96 16 -107 19 -14 11
-17 -39 -14 -35 1 -35 -12 -3 -44 13 -14 20 -25 15 -25 -5 0 -12 5 -15 10 -3
6 -11 10 -16 10 -6 0 -7 -4 -4 -10 4 -6 -3 -9 -16 -7 -32 3 -43 -35 -18 -62
15 -16 27 -19 47 -14 23 5 25 4 15 -9 -11 -13 -22 -14 -65 -9 -4 1 -8 11 -10
23 -2 12 -9 23 -16 26 -11 3 -12 0 -3 -17 18 -33 3 -24 -20 12 l-20 32 7 -30
c4 -16 13 -38 21 -47 8 -9 12 -22 8 -28 -3 -6 -1 -9 6 -8 7 2 13 -2 14 -8 0
-6 16 -25 35 -44 19 -18 29 -30 23 -26 -18 10 -16 -9 1 -23 11 -9 20 -9 35 -2
28 15 34 14 26 -7 -5 -13 -3 -14 6 -5 6 6 18 9 27 6 11 -5 13 -3 7 7 -6 9 -4
11 5 5 10 -6 9 -11 -5 -22 -11 -7 -24 -13 -31 -13 -6 0 -14 -9 -17 -21 -4 -16
-2 -19 11 -14 13 5 14 3 5 -6 -16 -16 -32 -3 -26 21 4 15 0 20 -16 21 -11 1
-30 2 -42 3 -24 1 -88 105 -90 146 -1 17 -3 20 -6 7 -2 -9 0 -41 7 -70 9 -43
8 -53 -4 -62 -8 -6 -11 -16 -7 -23 4 -7 9 -63 10 -124 1 -62 6 -119 11 -128 6
-9 10 -11 10 -2 0 6 5 12 11 12 5 0 8 -3 5 -8 -2 -4 27 -8 65 -9 43 -1 67 2
63 8 -3 6 -13 8 -21 5 -8 -4 -11 -1 -8 5 4 6 13 8 21 5 8 -3 14 -1 14 4 0 6 5
10 10 10 6 0 9 -3 9 -7 -4 -22 3 -30 24 -30 20 0 23 5 24 46 1 47 22 223 27
229 2 1 15 -2 29 -7 15 -6 38 -7 55 -1 27 7 31 6 37 -18 5 -20 1 -30 -17 -45
l-23 -18 25 6 c36 10 43 20 31 43 -16 30 -14 36 19 56 21 12 41 16 63 11 l32
-6 -35 17 c-19 9 -47 16 -63 16 -15 -1 -25 4 -22 9 6 9 -15 13 -44 9 -16 -2
-81 59 -81 76 0 7 -4 16 -10 19 -5 3 -7 0 -4 -8 2 -7 -3 -23 -13 -33 -10 -11
-14 -14 -9 -7 13 19 1 26 -22 14 -27 -15 -29 -14 -35 9 -3 11 -2 18 3 15 4 -3
14 3 21 12 11 13 11 15 1 9 -7 -4 -19 -2 -28 4 -19 16 -1 40 25 33 28 -7 33
42 10 100 -11 26 -15 46 -9 42 12 -7 70 22 70 35 0 6 -4 10 -8 10 -5 0 -14 11
-20 24 -9 21 -8 25 5 28 15 3 15 5 -1 21 -21 20 -21 20 -68 -6z m-95 -261 c4
-10 1 -13 -8 -9 -8 3 -12 9 -9 14 7 12 11 11 17 -5z m224 -136 c-1 -10 -5 -17
-9 -14 -4 3 -4 12 -1 21 4 10 2 14 -4 10 -5 -3 -10 0 -10 8 0 11 4 12 13 4 7
-6 12 -19 11 -29z m-47 -5 c0 -8 -2 -15 -4 -15 -2 0 -6 7 -10 15 -3 8 -1 15 4
15 6 0 10 -7 10 -15z m-14 -27 c4 -7 3 -8 -4 -4 -7 4 -12 2 -12 -5 0 -7 -3
-10 -6 -6 -6 5 3 27 11 27 2 0 7 -5 11 -12z m-212 -132 c-3 -7 6 -11 23 -10
16 1 33 -1 38 -5 16 -9 29 -8 45 5 10 8 21 10 30 4 11 -7 8 -11 -13 -19 -34
-13 -54 -14 -61 -3 -6 10 -36 9 -54 -2 -13 -8 -17 0 -25 49 -5 27 -4 28 8 11
8 -10 12 -23 9 -30z m50 16 c3 -5 -1 -9 -9 -9 -8 0 -12 4 -9 9 3 4 7 8 9 8 2
0 6 -4 9 -8z m152 -11 c0 -11 -4 -17 -9 -14 -5 3 -8 -3 -7 -13 4 -38 0 -54
-16 -54 -13 0 -14 3 -5 13 6 8 9 16 6 19 -7 6 15 68 24 68 4 0 7 -9 7 -19z
m-182 -74 c-1 -43 12 -71 27 -61 5 3 2 15 -6 27 -19 27 -19 38 -2 31 8 -3 14
2 14 11 0 10 -6 14 -16 10 -12 -5 -13 -3 -4 6 15 15 36 1 30 -22 -3 -10 -2
-20 2 -22 3 -2 0 -2 -6 -1 -18 5 -16 -11 2 -26 9 -7 13 -20 10 -28 -3 -9 6 -3
21 11 15 15 23 31 19 35 -4 4 -10 1 -12 -5 -3 -7 -9 -13 -15 -13 -7 0 -7 5 1
13 6 8 9 16 7 18 -8 8 49 7 59 -1 6 -4 18 -6 28 -5 9 2 17 -1 17 -6 0 -5 -11
-7 -24 -5 -17 3 -23 0 -22 -11 4 -24 30 -35 38 -15 5 12 6 10 5 -9 -1 -18 -7
-26 -21 -27 -17 -1 -18 1 -6 8 16 10 16 10 -30 14 -8 1 -28 -6 -45 -16 -36
-21 -56 -23 -49 -5 3 8 -3 20 -12 28 -16 13 -17 12 -12 -9 4 -12 2 -22 -3 -22
-5 0 -9 15 -10 33 0 26 -2 28 -8 12 -6 -13 -8 -3 -7 32 1 28 4 49 8 47 4 -2 9
0 13 6 9 15 10 13 9 -33z m137 10 c-13 -13 -26 -3 -16 12 3 6 11 8 17 5 6 -4
6 -10 -1 -17z"/>
<path d="M557 80 c-3 -11 -2 -22 2 -24 4 -3 8 6 9 20 2 29 -4 31 -11 4z"/>
<path d="M488 729 c-9 -5 -30 -7 -47 -5 -20 2 -36 -3 -47 -15 -10 -11 -12 -19
-6 -19 6 0 9 -6 6 -14 -3 -9 6 -17 26 -24 32 -12 60 -7 60 9 0 9 8 21 37 53
16 18 -5 28 -29 15z"/>
<path d="M985 133 c-20 -66 -31 -141 -21 -132 8 7 45 182 41 187 -2 2 -11 -23
-20 -55z"/>
<path d="M801 85 c-6 -43 -9 -80 -6 -83 12 -12 38 125 26 145 -5 11 -12 -9
-20 -62z"/>
<path d="M1015 80 c-10 -11 -13 -20 -8 -20 13 0 38 29 31 35 -3 3 -13 -4 -23
-15z"/>
<path d="M78 35 c2 -19 6 -35 8 -35 2 0 4 16 4 35 0 19 -4 35 -8 35 -4 0 -6
-16 -4 -35z"/>
<path d="M997 33 c-4 -3 -7 -12 -7 -20 0 -16 26 -17 36 -1 5 8 2 9 -10 5 -14
-5 -17 -3 -12 8 6 16 3 19 -7 8z"/>
<path d="M910 15 c0 -16 16 -20 24 -6 3 5 -1 11 -9 15 -9 3 -15 0 -15 -9z"/>
</g>
</svg>
